<mxfile host="app.diagrams.net" modified="2020-10-19T05:51:06.456Z" agent="5.0 (Windows NT 10.0; Win64; x64) AppleWebKit/537.36 (KHTML, like Gecko) Chrome/86.0.4240.75 Safari/537.36" etag="LQkopwfK2goES0k9hTZr" version="13.8.0" type="github">
  <diagram id="cELpZcNbKksSihuI4QRJ" name="Page-1">
    <mxGraphModel dx="1038" dy="580" grid="1" gridSize="10" guides="1" tooltips="1" connect="1" arrows="1" fold="1" page="1" pageScale="1" pageWidth="850" pageHeight="1100" background="#F4F1DE" math="0" shadow="0">
      <root>
        <mxCell id="0" />
        <mxCell id="1" parent="0" />
        <mxCell id="5_IxKsNY6zUTyP7RGT48-1" value="Selection" style="rounded=0;whiteSpace=wrap;html=1;fillColor=#F2CC8F;strokeColor=#E07A5F;fontColor=#393C56;" vertex="1" parent="1">
          <mxGeometry x="360" y="40" width="120" height="40" as="geometry" />
        </mxCell>
        <mxCell id="5_IxKsNY6zUTyP7RGT48-16" style="edgeStyle=orthogonalEdgeStyle;rounded=0;orthogonalLoop=1;jettySize=auto;html=1;exitX=0.5;exitY=0;exitDx=0;exitDy=0;strokeColor=#E07A5F;fontColor=#393C56;labelBackgroundColor=#F4F1DE;" edge="1" parent="1" source="5_IxKsNY6zUTyP7RGT48-2">
          <mxGeometry relative="1" as="geometry">
            <mxPoint x="420" y="80" as="targetPoint" />
          </mxGeometry>
        </mxCell>
        <mxCell id="5_IxKsNY6zUTyP7RGT48-2" value="TattsLotto" style="rounded=0;whiteSpace=wrap;html=1;fillColor=#F2CC8F;strokeColor=#E07A5F;fontColor=#393C56;" vertex="1" parent="1">
          <mxGeometry x="120" y="160" width="120" height="40" as="geometry" />
        </mxCell>
        <mxCell id="5_IxKsNY6zUTyP7RGT48-15" value="" style="edgeStyle=orthogonalEdgeStyle;rounded=0;orthogonalLoop=1;jettySize=auto;html=1;strokeColor=#E07A5F;fontColor=#393C56;labelBackgroundColor=#F4F1DE;" edge="1" parent="1" source="5_IxKsNY6zUTyP7RGT48-3" target="5_IxKsNY6zUTyP7RGT48-1">
          <mxGeometry relative="1" as="geometry" />
        </mxCell>
        <mxCell id="5_IxKsNY6zUTyP7RGT48-3" value="OzLotto" style="rounded=0;whiteSpace=wrap;html=1;fillColor=#F2CC8F;strokeColor=#E07A5F;fontColor=#393C56;" vertex="1" parent="1">
          <mxGeometry x="360" y="160" width="120" height="40" as="geometry" />
        </mxCell>
        <mxCell id="5_IxKsNY6zUTyP7RGT48-17" style="edgeStyle=orthogonalEdgeStyle;rounded=0;orthogonalLoop=1;jettySize=auto;html=1;exitX=0.5;exitY=0;exitDx=0;exitDy=0;strokeColor=#E07A5F;fontColor=#393C56;labelBackgroundColor=#F4F1DE;" edge="1" parent="1" source="5_IxKsNY6zUTyP7RGT48-4">
          <mxGeometry relative="1" as="geometry">
            <mxPoint x="420" y="80" as="targetPoint" />
          </mxGeometry>
        </mxCell>
        <mxCell id="5_IxKsNY6zUTyP7RGT48-4" value="PowerBall" style="rounded=0;whiteSpace=wrap;html=1;fillColor=#F2CC8F;strokeColor=#E07A5F;fontColor=#393C56;" vertex="1" parent="1">
          <mxGeometry x="600" y="160" width="120" height="40" as="geometry" />
        </mxCell>
        <mxCell id="5_IxKsNY6zUTyP7RGT48-19" value="" style="edgeStyle=orthogonalEdgeStyle;rounded=0;orthogonalLoop=1;jettySize=auto;html=1;strokeColor=#E07A5F;fontColor=#393C56;labelBackgroundColor=#F4F1DE;" edge="1" parent="1" source="5_IxKsNY6zUTyP7RGT48-5" target="5_IxKsNY6zUTyP7RGT48-7">
          <mxGeometry relative="1" as="geometry" />
        </mxCell>
        <mxCell id="5_IxKsNY6zUTyP7RGT48-5" value="Getting 6 winning numbers" style="rounded=0;whiteSpace=wrap;html=1;fillColor=#F2CC8F;strokeColor=#E07A5F;fontColor=#393C56;" vertex="1" parent="1">
          <mxGeometry x="120" y="320" width="120" height="40" as="geometry" />
        </mxCell>
        <mxCell id="5_IxKsNY6zUTyP7RGT48-18" value="" style="edgeStyle=orthogonalEdgeStyle;rounded=0;orthogonalLoop=1;jettySize=auto;html=1;strokeColor=#E07A5F;fontColor=#393C56;labelBackgroundColor=#F4F1DE;" edge="1" parent="1" source="5_IxKsNY6zUTyP7RGT48-6" target="5_IxKsNY6zUTyP7RGT48-5">
          <mxGeometry relative="1" as="geometry" />
        </mxCell>
        <mxCell id="5_IxKsNY6zUTyP7RGT48-6" value="Getting 2 extra numbers" style="rounded=0;whiteSpace=wrap;html=1;fillColor=#F2CC8F;strokeColor=#E07A5F;fontColor=#393C56;" vertex="1" parent="1">
          <mxGeometry x="120" y="400" width="120" height="40" as="geometry" />
        </mxCell>
        <mxCell id="5_IxKsNY6zUTyP7RGT48-20" value="" style="edgeStyle=orthogonalEdgeStyle;rounded=0;orthogonalLoop=1;jettySize=auto;html=1;strokeColor=#E07A5F;fontColor=#393C56;labelBackgroundColor=#F4F1DE;" edge="1" parent="1" source="5_IxKsNY6zUTyP7RGT48-7" target="5_IxKsNY6zUTyP7RGT48-2">
          <mxGeometry relative="1" as="geometry" />
        </mxCell>
        <mxCell id="5_IxKsNY6zUTyP7RGT48-7" value="Set of 1-45 numbers" style="rounded=0;whiteSpace=wrap;html=1;fillColor=#F2CC8F;strokeColor=#E07A5F;fontColor=#393C56;" vertex="1" parent="1">
          <mxGeometry x="120" y="240" width="120" height="40" as="geometry" />
        </mxCell>
        <mxCell id="5_IxKsNY6zUTyP7RGT48-23" value="" style="edgeStyle=orthogonalEdgeStyle;rounded=0;orthogonalLoop=1;jettySize=auto;html=1;strokeColor=#E07A5F;fontColor=#393C56;labelBackgroundColor=#F4F1DE;" edge="1" parent="1" source="5_IxKsNY6zUTyP7RGT48-8" target="5_IxKsNY6zUTyP7RGT48-3">
          <mxGeometry relative="1" as="geometry" />
        </mxCell>
        <mxCell id="5_IxKsNY6zUTyP7RGT48-8" value="Set of 1-45 numbers" style="rounded=0;whiteSpace=wrap;html=1;fillColor=#F2CC8F;strokeColor=#E07A5F;fontColor=#393C56;" vertex="1" parent="1">
          <mxGeometry x="360" y="240" width="120" height="40" as="geometry" />
        </mxCell>
        <mxCell id="5_IxKsNY6zUTyP7RGT48-22" value="" style="edgeStyle=orthogonalEdgeStyle;rounded=0;orthogonalLoop=1;jettySize=auto;html=1;strokeColor=#E07A5F;fontColor=#393C56;labelBackgroundColor=#F4F1DE;" edge="1" parent="1" source="5_IxKsNY6zUTyP7RGT48-9" target="5_IxKsNY6zUTyP7RGT48-8">
          <mxGeometry relative="1" as="geometry" />
        </mxCell>
        <mxCell id="5_IxKsNY6zUTyP7RGT48-9" value="Getting 7 winning digits" style="rounded=0;whiteSpace=wrap;html=1;fillColor=#F2CC8F;strokeColor=#E07A5F;fontColor=#393C56;" vertex="1" parent="1">
          <mxGeometry x="360" y="320" width="120" height="40" as="geometry" />
        </mxCell>
        <mxCell id="5_IxKsNY6zUTyP7RGT48-21" value="" style="edgeStyle=orthogonalEdgeStyle;rounded=0;orthogonalLoop=1;jettySize=auto;html=1;strokeColor=#E07A5F;fontColor=#393C56;labelBackgroundColor=#F4F1DE;" edge="1" parent="1" source="5_IxKsNY6zUTyP7RGT48-10" target="5_IxKsNY6zUTyP7RGT48-9">
          <mxGeometry relative="1" as="geometry" />
        </mxCell>
        <mxCell id="5_IxKsNY6zUTyP7RGT48-10" value="Getting 2 extra digits" style="rounded=0;whiteSpace=wrap;html=1;fillColor=#F2CC8F;strokeColor=#E07A5F;fontColor=#393C56;" vertex="1" parent="1">
          <mxGeometry x="360" y="400" width="120" height="40" as="geometry" />
        </mxCell>
        <mxCell id="5_IxKsNY6zUTyP7RGT48-26" style="edgeStyle=orthogonalEdgeStyle;rounded=0;orthogonalLoop=1;jettySize=auto;html=1;exitX=0.5;exitY=0;exitDx=0;exitDy=0;entryX=0.5;entryY=1;entryDx=0;entryDy=0;strokeColor=#E07A5F;fontColor=#393C56;labelBackgroundColor=#F4F1DE;" edge="1" parent="1" source="5_IxKsNY6zUTyP7RGT48-11" target="5_IxKsNY6zUTyP7RGT48-4">
          <mxGeometry relative="1" as="geometry" />
        </mxCell>
        <mxCell id="5_IxKsNY6zUTyP7RGT48-11" value="Set of 1-35 numbers" style="rounded=0;whiteSpace=wrap;html=1;fillColor=#F2CC8F;strokeColor=#E07A5F;fontColor=#393C56;" vertex="1" parent="1">
          <mxGeometry x="520" y="240" width="120" height="40" as="geometry" />
        </mxCell>
        <mxCell id="5_IxKsNY6zUTyP7RGT48-27" style="edgeStyle=orthogonalEdgeStyle;rounded=0;orthogonalLoop=1;jettySize=auto;html=1;exitX=0.5;exitY=0;exitDx=0;exitDy=0;strokeColor=#E07A5F;fontColor=#393C56;labelBackgroundColor=#F4F1DE;" edge="1" parent="1" source="5_IxKsNY6zUTyP7RGT48-12">
          <mxGeometry relative="1" as="geometry">
            <mxPoint x="660" y="200" as="targetPoint" />
          </mxGeometry>
        </mxCell>
        <mxCell id="5_IxKsNY6zUTyP7RGT48-12" value="Set of 1-20 numbers" style="rounded=0;whiteSpace=wrap;html=1;fillColor=#F2CC8F;strokeColor=#E07A5F;fontColor=#393C56;" vertex="1" parent="1">
          <mxGeometry x="680" y="240" width="120" height="40" as="geometry" />
        </mxCell>
        <mxCell id="5_IxKsNY6zUTyP7RGT48-24" value="" style="edgeStyle=orthogonalEdgeStyle;rounded=0;orthogonalLoop=1;jettySize=auto;html=1;strokeColor=#E07A5F;fontColor=#393C56;labelBackgroundColor=#F4F1DE;" edge="1" parent="1" source="5_IxKsNY6zUTyP7RGT48-13" target="5_IxKsNY6zUTyP7RGT48-11">
          <mxGeometry relative="1" as="geometry" />
        </mxCell>
        <mxCell id="5_IxKsNY6zUTyP7RGT48-13" value="Getting 7 random numbers" style="rounded=0;whiteSpace=wrap;html=1;fillColor=#F2CC8F;strokeColor=#E07A5F;fontColor=#393C56;" vertex="1" parent="1">
          <mxGeometry x="520" y="320" width="120" height="40" as="geometry" />
        </mxCell>
        <mxCell id="5_IxKsNY6zUTyP7RGT48-25" value="" style="edgeStyle=orthogonalEdgeStyle;rounded=0;orthogonalLoop=1;jettySize=auto;html=1;strokeColor=#E07A5F;fontColor=#393C56;labelBackgroundColor=#F4F1DE;" edge="1" parent="1" source="5_IxKsNY6zUTyP7RGT48-14" target="5_IxKsNY6zUTyP7RGT48-12">
          <mxGeometry relative="1" as="geometry" />
        </mxCell>
        <mxCell id="5_IxKsNY6zUTyP7RGT48-14" value="Getting the Powerball number" style="rounded=0;whiteSpace=wrap;html=1;fillColor=#F2CC8F;strokeColor=#E07A5F;fontColor=#393C56;" vertex="1" parent="1">
          <mxGeometry x="680" y="320" width="120" height="40" as="geometry" />
        </mxCell>
      </root>
    </mxGraphModel>
  </diagram>
</mxfile>
